<svg width="157" height="50" viewBox="0 0 157 50" xmlns="http://www.w3.org/2000/svg"><title>9AB131F9-044F-4E73-9D9A-1637530408DB</title><path d="M83.956 49.932c12.519 0 15.34-8.143 15.34-13.734V19.736h-9.23v15.835c0 4.34-2.438 6.239-6.11 6.239-3.68 0-6.116-1.898-6.116-6.24V19.737h-9.23v16.462c0 5.59 2.819 13.734 15.346 13.734m-68.608-.001c12.521 0 15.342-8.143 15.342-13.734V19.736h-9.228v15.835c0 4.34-2.44 6.239-6.114 6.239-3.678 0-6.12-1.898-6.12-6.24V19.737H0v16.462c0 5.59 2.83 13.734 15.348 13.734m34.304-31.341c-12.523 0-15.348 8.14-15.348 13.731v16.462h9.232V32.947c0-4.331 2.437-6.233 6.116-6.233 3.677 0 6.112 1.902 6.112 6.233v15.838h9.23V32.323c0-5.59-2.823-13.731-15.342-13.731m77.312 4.665c-.399-.532-2.752-4.665-10.304-4.665-7.693 0-13.75 3.842-13.75 13.124v17.07h9.022V31.7c0-2.992 1.531-5.284 5.256-5.284 3.733 0 5.26 2.292 5.26 5.284v17.085h9.025V31.7c0-2.992 1.527-5.284 5.256-5.284 3.731 0 5.26 2.292 5.26 5.284v17.085h9.019V31.716c0-9.282-6.06-13.124-13.748-13.124-7.542 0-9.902 4.133-10.296 4.665M42.062 7.495c0 4.199 3.356 7.428 7.586 7.428 4.19 0 7.485-3.23 7.485-7.428 0-4.192-3.295-7.418-7.485-7.418-4.23 0-7.586 3.226-7.586 7.418m34.298 0c0 4.199 3.36 7.428 7.592 7.428 4.188 0 7.483-3.23 7.483-7.428 0-4.192-3.295-7.418-7.483-7.418-4.233 0-7.592 3.226-7.592 7.418m43.011 0c0 4.199 3.36 7.428 7.593 7.428 4.188 0 7.483-3.23 7.483-7.428 0-4.192-3.295-7.418-7.483-7.418-4.233 0-7.593 3.226-7.593 7.418m34.267 12.033a1.36 1.36 0 0 0-.361.055v1.314h.279c.495 0 .88-.18.88-.728 0-.515-.44-.64-.798-.64zm.889 3.367l-1.141-1.656h-.11v1.656h-.51v-3.6c.24-.117.574-.19.916-.19.755 0 1.285.423 1.285 1.064 0 .619-.44.972-1.034 1.032l1.215 1.694h-.621zm-.72-4.536a2.723 2.723 0 0 0-2.715 2.735 2.707 2.707 0 0 0 2.716 2.71 2.706 2.706 0 0 0 2.707-2.71c0-1.503-1.206-2.735-2.707-2.735zm0 5.914a3.171 3.171 0 0 1-3.183-3.179 3.187 3.187 0 0 1 3.184-3.195 3.193 3.193 0 0 1 3.183 3.195 3.178 3.178 0 0 1-3.183 3.179z" fill="#FFF" fill-rule="evenodd"/></svg>