<?xml version="1.0" encoding="UTF-8" standalone="no"?>
<svg width="158px" height="51px" viewBox="0 0 158 51" version="1.1" xmlns="http://www.w3.org/2000/svg" xmlns:xlink="http://www.w3.org/1999/xlink">
    <!-- Generator: Sketch 41.2 (35397) - http://www.bohemiancoding.com/sketch -->
    <title>logo_unum_one_color</title>
    <desc>Created with Sketch.</desc>
    <defs></defs>
    <g id="Page-1" stroke="none" stroke-width="1" fill="none" fill-rule="evenodd">
        <g id="logo_unum_one_color" fill="#3A80AA">
            <path d="M84.349312,50.2572098 C96.9269049,50.2572098 99.7610249,42.0611605 99.7610249,36.4344321 L99.7610249,19.8648475 L90.4874471,19.8648475 L90.4874471,35.8026665 C90.4874471,40.1722025 88.0389359,42.0822898 84.349312,42.0822898 C80.6512595,42.0822898 78.2048555,40.1722025 78.2048555,35.8026665 L78.2048555,19.8648475 L68.9312776,19.8648475 L68.9312776,36.4344321 C68.9312776,42.0611605 71.7632905,50.2572098 84.349312,50.2572098" id="Fill-1"></path>
            <path d="M15.4201415,50.2572098 C27.9998416,50.2572098 30.8339616,42.0611605 30.8339616,36.4344321 L30.8339616,19.8648475 L21.5624909,19.8648475 L21.5624909,35.8026665 C21.5624909,40.1722025 19.1118726,42.0822898 15.4201415,42.0822898 C11.7241962,42.0822898 9.27147072,40.1722025 9.27147072,35.8026665 L9.27147072,19.8648475 L0,19.8648475 L0,36.4344321 C0,42.0611605 2.84254864,50.2572098 15.4201415,50.2572098" id="Fill-2"></path>
            <path d="M49.8847268,18.7133015 C37.3029196,18.7133015 34.4645852,26.9072379 34.4645852,32.5339663 L34.4645852,49.1035509 L43.7402703,49.1035509 L43.7402703,33.161506 C43.7402703,28.8025347 46.1887814,26.8882215 49.8847268,26.8882215 C53.578565,26.8882215 56.024969,28.8025347 56.024969,33.161506 L56.024969,49.1035509 L65.2985468,49.1035509 L65.2985468,32.5339663 C65.2985468,26.9072379 62.4623197,18.7133015 49.8847268,18.7133015" id="Fill-3"></path>
            <path d="M127.55858,23.4082284 C127.158221,22.8736575 124.793996,18.7133015 117.20614,18.7133015 C109.477105,18.7133015 103.391649,22.5799605 103.391649,31.9233299 L103.391649,49.1035509 L112.456618,49.1035509 L112.456618,31.9064265 C112.456618,28.8955035 113.99484,26.5881857 117.737142,26.5881857 C121.487874,26.5881857 123.021881,28.8955035 123.021881,31.9064265 L123.021881,49.1035509 L132.088958,49.1035509 L132.088958,31.9064265 C132.088958,28.8955035 133.622965,26.5881857 137.369482,26.5881857 C141.118106,26.5881857 142.65422,28.8955035 142.65422,31.9064265 L142.65422,49.1035509 L151.714975,49.1035509 L151.714975,31.9233299 C151.714975,22.5799605 145.627412,18.7133015 137.902591,18.7133015 C130.325271,18.7133015 127.954725,22.8736575 127.55858,23.4082284" id="Fill-4"></path>
            <path d="M42.2589421,7.54436184 C42.2589421,11.7702187 45.630386,15.0199026 49.8805125,15.0199026 C54.090603,15.0199026 57.4009395,11.7702187 57.4009395,7.54436184 C57.4009395,3.32484379 54.090603,0.0772728108 49.8805125,0.0772728108 C45.630386,0.0772728108 42.2589421,3.32484379 42.2589421,7.54436184" id="Fill-5"></path>
            <path d="M76.7172059,7.54436184 C76.7172059,11.7702187 80.0928641,15.0199026 84.3450977,15.0199026 C88.5530811,15.0199026 91.8634176,11.7702187 91.8634176,7.54436184 C91.8634176,3.32484379 88.5530811,0.0772728108 84.3450977,0.0772728108 C80.0928641,0.0772728108 76.7172059,3.32484379 76.7172059,7.54436184" id="Fill-6"></path>
            <path d="M119.930688,7.54436184 C119.930688,11.7702187 123.306346,15.0199026 127.55858,15.0199026 C131.766563,15.0199026 135.0769,11.7702187 135.0769,7.54436184 C135.0769,3.32484379 131.766563,0.0772728108 127.55858,0.0772728108 C123.306346,0.0772728108 119.930688,3.32484379 119.930688,7.54436184" id="Fill-7"></path>
            <path d="M154.357345,19.6556675 C154.22038,19.6556675 154.09395,19.6831356 153.994914,19.7106037 L153.994914,21.0332969 L154.275166,21.0332969 C154.772454,21.0332969 155.16017,20.851585 155.16017,20.3001107 C155.16017,19.7824432 154.717668,19.6556675 154.357345,19.6556675 L154.357345,19.6556675 Z M155.250777,23.0448047 L154.104486,21.3777042 L153.994914,21.3777042 L153.994914,23.0448047 L153.480769,23.0448047 L153.480769,19.4211325 C153.723092,19.3028085 154.058129,19.228856 154.401595,19.228856 C155.16017,19.228856 155.693279,19.6556675 155.693279,20.3001107 C155.693279,20.9234246 155.250777,21.2783966 154.654453,21.3396715 L155.874494,23.0448047 L155.250777,23.0448047 L155.250777,23.0448047 Z M154.528024,18.4787664 C153.008767,18.4787664 151.799261,19.7190554 151.799261,21.2319121 C151.799261,22.7363172 153.008767,23.9597027 154.528024,23.9597027 C156.036745,23.9597027 157.248358,22.7363172 157.248358,21.2319121 C157.248358,19.7190554 156.036745,18.4787664 154.528024,18.4787664 L154.528024,18.4787664 Z M154.528024,24.4308858 C152.755909,24.4308858 151.329366,23.0088849 151.329366,21.2319121 C151.329366,19.4570523 152.755909,18.0160351 154.528024,18.0160351 C156.289603,18.0160351 157.726681,19.4570523 157.726681,21.2319121 C157.726681,23.0088849 156.289603,24.4308858 154.528024,24.4308858 L154.528024,24.4308858 Z" id="Fill-8"></path>
        </g>
    </g>
</svg>